<svg xmlns="http://www.w3.org/2000/svg" xmlns:xlink="http://www.w3.org/1999/xlink" width="3375" zoomAndPan="magnify" viewBox="0 0 2531.25 2531.250003" height="3375" preserveAspectRatio="xMidYMid meet" version="1.0"><defs><g/><clipPath id="29a401dbfd"><path d="M 420.78125 630 L 1798 630 L 1798 1834.429688 L 420.78125 1834.429688 Z M 420.78125 630 " clip-rule="nonzero"/></clipPath><clipPath id="d387964180"><path d="M 1318.953125 630.03125 L 899.03125 630.03125 C 634.882812 630.03125 420.78125 839.195312 420.78125 1097.210938 C 420.78125 1284 533.023438 1445.117188 695.1875 1519.871094 L 695.1875 1834.429688 L 1020.007812 1564.375 L 1318.953125 1564.375 C 1583.121094 1564.375 1797.238281 1355.210938 1797.238281 1097.195312 C 1797.257812 839.195312 1583.121094 630.03125 1318.953125 630.03125 Z M 1318.953125 630.03125 " clip-rule="nonzero"/></clipPath><clipPath id="73babbf8bb"><path d="M 1085 690 L 1440 690 L 1440 1125 L 1085 1125 Z M 1085 690 " clip-rule="nonzero"/></clipPath><clipPath id="4da660c989"><path d="M 1217.800781 638.054688 L 1487.867188 792.597656 L 1255.871094 1198.023438 L 985.800781 1043.480469 Z M 1217.800781 638.054688 " clip-rule="nonzero"/></clipPath><clipPath id="45a3de7a8b"><path d="M 1217.800781 638.054688 L 1487.867188 792.597656 L 1255.871094 1198.023438 L 985.800781 1043.480469 Z M 1217.800781 638.054688 " clip-rule="nonzero"/></clipPath><clipPath id="b39c605bec"><path d="M 698 1244 L 1521 1244 L 1521 1587.613281 L 698 1587.613281 Z M 698 1244 " clip-rule="nonzero"/></clipPath></defs><g clip-path="url(#29a401dbfd)"><g clip-path="url(#d387964180)"><path fill="#333333" d="M 420.78125 630.03125 L 1799.253906 630.03125 L 1799.253906 1834.429688 L 420.78125 1834.429688 Z M 420.78125 630.03125 " fill-opacity="1" fill-rule="nonzero"/></g></g><g clip-path="url(#73babbf8bb)"><g clip-path="url(#4da660c989)"><g clip-path="url(#45a3de7a8b)"><path fill="#ffffff" d="M 1355.113281 716.632812 C 1271.425781 668.742188 1197.132812 688.472656 1156.945312 755.574219 L 1155 758.96875 L 1228.882812 801.246094 L 1230.828125 797.851562 C 1249.601562 768.800781 1281.40625 761.324219 1312.753906 779.261719 C 1343.828125 797.042969 1354.265625 826.867188 1339.757812 852.21875 C 1325.25 877.574219 1307.125 884.578125 1259.949219 885.457031 C 1209.691406 886.003906 1180.640625 901.953125 1159.226562 947.597656 L 1152.996094 959.484375 L 1225.359375 1000.890625 L 1231.699219 989.816406 C 1246.671875 963.652344 1264.425781 956.042969 1312.6875 955.808594 C 1364.078125 955.167969 1400.335938 937.9375 1423.738281 897.039062 C 1459.777344 834.058594 1433.082031 761.246094 1355.113281 716.632812 Z M 1161.765625 1031.722656 C 1134.035156 1015.851562 1107.519531 1022.050781 1092.507812 1048.28125 C 1077.632812 1074.277344 1085.753906 1100.261719 1113.472656 1116.121094 C 1141.1875 1131.980469 1167.472656 1125.6875 1182.347656 1099.691406 C 1197.355469 1073.460938 1189.5 1047.59375 1161.765625 1031.722656 Z M 1161.765625 1031.722656 " fill-opacity="1" fill-rule="nonzero"/></g></g></g><path fill="#ffffff" d="M 1117.535156 1198.21875 C 1176.035156 1198.21875 1223.46875 1150.796875 1223.46875 1092.300781 C 1223.46875 1033.816406 1176.035156 986.398438 1117.535156 986.398438 C 1059.066406 986.398438 1011.632812 1033.816406 1011.632812 1092.300781 C 1011.648438 1150.785156 1059.082031 1198.21875 1117.535156 1198.21875 Z M 1117.535156 1198.21875 " fill-opacity="1" fill-rule="nonzero"/><g clip-path="url(#b39c605bec)"><path fill="#ffffff" d="M 1505.296875 1274.664062 C 1486.136719 1256.066406 1455.441406 1256.457031 1436.757812 1275.703125 L 1365.828125 1348.789062 L 1238.851562 1259.164062 C 1230.65625 1253.390625 1220.890625 1250.292969 1210.878906 1250.292969 L 1023.371094 1250.292969 C 1015.234375 1250.292969 1007.226562 1252.351562 1000.09375 1256.253906 L 854.910156 1335.8125 L 781.476562 1259.367188 C 762.949219 1240.09375 732.269531 1239.460938 712.953125 1257.984375 C 693.648438 1276.550781 693.03125 1307.21875 711.582031 1326.519531 L 810.730469 1429.730469 C 825.914062 1445.503906 849.679688 1449.21875 868.867188 1438.632812 L 993.769531 1370.140625 L 993.769531 1957.300781 C 993.769531 1984.050781 1010.222656 2005.757812 1036.984375 2005.757812 C 1063.75 2005.757812 1080.199219 1984.050781 1080.199219 1957.300781 L 1080.199219 1596.003906 L 1137.816406 1596.003906 L 1137.816406 1957.300781 C 1137.816406 1984.050781 1154.253906 2005.757812 1181.015625 2005.757812 C 1207.78125 2005.757812 1224.246094 1984.050781 1224.246094 1957.300781 L 1224.246094 1366.898438 L 1344.238281 1451.898438 C 1352.679688 1457.835938 1362.242188 1460.742188 1371.980469 1460.742188 C 1384.699219 1460.742188 1397.21875 1455.730469 1406.636719 1446.035156 L 1506.40625 1343.203125 C 1525.03125 1324 1524.527344 1293.320312 1505.296875 1274.664062 Z M 1505.296875 1274.664062 " fill-opacity="1" fill-rule="nonzero"/></g><g fill="#333333" fill-opacity="1"><g transform="translate(1213.219936, 1797.162697)"><g><path d="M 122.46875 -143.46875 L 121.796875 -50.390625 C 121.660156 -32.660156 116.773438 -19.28125 107.140625 -10.25 C 97.515625 -1.21875 83.488281 3.226562 65.0625 3.09375 C 46.632812 2.957031 32.671875 -1.691406 23.171875 -10.859375 C 13.671875 -20.023438 8.988281 -33.472656 9.125 -51.203125 L 9.796875 -144.28125 L 42.6875 -144.046875 L 42.078125 -60.59375 C 41.992188 -48.925781 43.769531 -40.800781 47.40625 -36.21875 C 51.050781 -31.644531 57.015625 -29.328125 65.296875 -29.265625 C 73.578125 -29.203125 79.570312 -31.429688 83.28125 -35.953125 C 86.988281 -40.484375 88.882812 -48.582031 88.96875 -60.25 L 89.578125 -143.703125 Z M 122.46875 -143.46875 "/></g></g></g><g fill="#333333" fill-opacity="1"><g transform="translate(1354.268562, 1799.264325)"><g><path d="M 10.28125 -2.140625 L -7.984375 -90.015625 L 22.328125 -96.3125 L 24.25 -87.046875 L 24.59375 -87.109375 C 30.84375 -96.640625 38.421875 -102.328125 47.328125 -104.171875 C 53.710938 -105.503906 59.976562 -105.4375 66.125 -103.96875 C 72.269531 -102.507812 77.335938 -99.335938 81.328125 -94.453125 C 88.003906 -107.035156 96.597656 -114.414062 107.109375 -116.59375 C 116.472656 -118.539062 125.066406 -117.585938 132.890625 -113.734375 C 140.722656 -109.890625 145.800781 -102.375 148.125 -91.1875 L 160.15625 -33.28125 L 129.828125 -26.984375 L 119.5 -76.65625 C 118.53125 -81.332031 116.4375 -84.972656 113.21875 -87.578125 C 110 -90.191406 105.828125 -90.96875 100.703125 -89.90625 C 96.242188 -88.976562 93.117188 -86.925781 91.328125 -83.75 C 89.546875 -80.582031 88.929688 -77.085938 89.484375 -73.265625 L 100.375 -20.859375 L 70.0625 -14.5625 L 59.734375 -64.234375 C 58.765625 -68.910156 56.671875 -72.550781 53.453125 -75.15625 C 50.234375 -77.769531 46.050781 -78.546875 40.90625 -77.484375 C 36.226562 -76.503906 33.019531 -74.316406 31.28125 -70.921875 C 29.539062 -67.523438 29.085938 -63.828125 29.921875 -59.828125 L 40.59375 -8.4375 Z M 10.28125 -2.140625 "/></g></g></g><g fill="#333333" fill-opacity="1"><g transform="translate(1530.539226, 1757.860636)"><g><path d="M 9.71875 -3.953125 L -24.140625 -87.078125 L 4.546875 -98.765625 L 9.4375 -86.765625 L 9.75 -86.890625 C 9.789062 -87.421875 9.921875 -88.109375 10.140625 -88.953125 C 10.359375 -89.804688 10.945312 -91.375 11.90625 -93.65625 C 12.863281 -95.9375 14 -98.09375 15.3125 -100.125 C 16.625 -102.164062 18.53125 -104.289062 21.03125 -106.5 C 23.53125 -108.71875 26.289062 -110.445312 29.3125 -111.6875 C 32.445312 -112.957031 35.703125 -113.773438 39.078125 -114.140625 C 42.453125 -114.515625 45.015625 -114.550781 46.765625 -114.25 L 49.578125 -113.90625 L 47.5 -84.703125 C 42.6875 -86.285156 37.09375 -85.773438 30.71875 -83.171875 C 27.269531 -81.765625 24.613281 -79.796875 22.75 -77.265625 C 20.882812 -74.742188 19.875 -72.191406 19.71875 -69.609375 C 19.570312 -67.035156 19.59375 -64.90625 19.78125 -63.21875 C 19.96875 -61.53125 20.238281 -60.253906 20.59375 -59.390625 L 38.40625 -15.640625 Z M 9.71875 -3.953125 "/></g></g></g><g fill="#333333" fill-opacity="1"><g transform="translate(1617.897363, 1722.799568)"><g><path d="M -10.953125 -97.53125 L 10.578125 -60.65625 C 15.046875 -53 19.378906 -48.234375 23.578125 -46.359375 C 27.773438 -44.492188 32.640625 -45.175781 38.171875 -48.40625 C 43.710938 -51.644531 46.703125 -55.550781 47.140625 -60.125 C 47.585938 -64.707031 45.578125 -70.828125 41.109375 -78.484375 L 19.578125 -115.359375 L 46.3125 -130.953125 L 71.625 -87.59375 C 79.15625 -74.6875 81.234375 -63.4375 77.859375 -53.84375 C 74.484375 -44.25 65.492188 -35.1875 50.890625 -26.65625 C 36.285156 -18.132812 23.972656 -14.757812 13.953125 -16.53125 C 3.929688 -18.3125 -4.84375 -25.65625 -12.375 -38.5625 L -37.6875 -81.921875 Z M -10.953125 -97.53125 "/></g></g></g><g fill="#333333" fill-opacity="1"><g transform="translate(1726.903524, 1661.326328)"><g><path d="M 7.828125 -7 L -52 -73.90625 L -28.921875 -94.546875 L -22.625 -87.5 L -22.359375 -87.734375 C -21.722656 -99.097656 -18.015625 -107.8125 -11.234375 -113.875 C -6.367188 -118.226562 -0.914062 -121.304688 5.125 -123.109375 C 11.175781 -124.921875 17.148438 -124.71875 23.046875 -122.5 C 22.535156 -136.726562 26.28125 -147.421875 34.28125 -154.578125 C 41.40625 -160.953125 49.320312 -164.429688 58.03125 -165.015625 C 66.738281 -165.609375 74.898438 -161.644531 82.515625 -153.125 L 121.9375 -109.046875 L 98.84375 -88.390625 L 65.03125 -126.203125 C 61.84375 -129.765625 58.203125 -131.867188 54.109375 -132.515625 C 50.015625 -133.160156 46.015625 -131.738281 42.109375 -128.25 C 38.710938 -125.21875 37.035156 -121.882812 37.078125 -118.25 C 37.128906 -114.613281 38.347656 -111.28125 40.734375 -108.25 L 76.421875 -68.34375 L 53.34375 -47.703125 L 19.53125 -85.515625 C 16.34375 -89.078125 12.695312 -91.179688 8.59375 -91.828125 C 4.5 -92.472656 0.5 -91.046875 -3.40625 -87.546875 C -6.976562 -84.359375 -8.660156 -80.859375 -8.453125 -77.046875 C -8.253906 -73.234375 -6.796875 -69.804688 -4.078125 -66.765625 L 30.90625 -27.640625 Z M 7.828125 -7 "/></g></g></g><g fill="#333333" fill-opacity="1"><g transform="translate(1860.302168, 1537.017745)"><g><path d="M 0.9375 -19.96875 C -11.414062 -18.65625 -22.9375 -21.953125 -33.625 -29.859375 C -44.320312 -37.765625 -50.875 -47.832031 -53.28125 -60.0625 C -55.695312 -72.289062 -53.0625 -83.609375 -45.375 -94.015625 C -38.300781 -103.585938 -29.476562 -109.25 -18.90625 -111 L -74.609375 -152.1875 L -56.1875 -177.09375 L 64.796875 -87.65625 L 46.59375 -63.03125 L 38.4375 -69.0625 L 38.21875 -68.78125 C 40.488281 -57.53125 38.085938 -47.117188 31.015625 -37.546875 C 23.328125 -27.140625 13.300781 -21.28125 0.9375 -19.96875 Z M -22.71875 -70.203125 C -21.914062 -64.617188 -19.03125 -59.988281 -14.0625 -56.3125 C -9.09375 -52.632812 -3.894531 -51.179688 1.53125 -51.953125 C 6.957031 -52.722656 11.539062 -55.640625 15.28125 -60.703125 C 18.882812 -65.578125 20.253906 -70.765625 19.390625 -76.265625 C 18.523438 -81.773438 15.65625 -86.332031 10.78125 -89.9375 C 5.8125 -93.613281 0.539062 -95.007812 -5.03125 -94.125 C -10.613281 -93.25 -15.140625 -90.460938 -18.609375 -85.765625 C -22.148438 -80.984375 -23.519531 -75.796875 -22.71875 -70.203125 Z M -22.71875 -70.203125 "/></g></g></g><g fill="#333333" fill-opacity="1"><g transform="translate(1935.691495, 1433.857806)"><g><path d="M -2.390625 -19.84375 C -14.347656 -16.5 -26.257812 -17.828125 -38.125 -23.828125 C -49.988281 -29.835938 -58.132812 -38.671875 -62.5625 -50.328125 C -66.988281 -61.984375 -66.273438 -73.585938 -60.421875 -85.140625 C -55.046875 -95.753906 -47.285156 -102.804688 -37.140625 -106.296875 L -44.796875 -110.171875 L -30.796875 -137.796875 L 49.265625 -97.234375 L 35.421875 -69.90625 L 26.375 -74.484375 L 26.21875 -74.1875 C 30.332031 -63.476562 29.703125 -52.816406 24.328125 -42.203125 C 18.472656 -30.648438 9.566406 -23.195312 -2.390625 -19.84375 Z M -34.109375 -65.4375 C -32.390625 -60.0625 -28.773438 -55.972656 -23.265625 -53.171875 C -17.753906 -50.378906 -12.382812 -49.816406 -7.15625 -51.484375 C -1.9375 -53.148438 2.09375 -56.789062 4.9375 -62.40625 C 7.675781 -67.8125 8.160156 -73.15625 6.390625 -78.4375 C 4.628906 -83.71875 1.039062 -87.726562 -4.375 -90.46875 C -9.882812 -93.269531 -15.316406 -93.769531 -20.671875 -91.96875 C -26.023438 -90.164062 -30.019531 -86.664062 -32.65625 -81.46875 C -35.34375 -76.164062 -35.828125 -70.820312 -34.109375 -65.4375 Z M -34.109375 -65.4375 "/></g></g></g><g fill="#333333" fill-opacity="1"><g transform="translate(1990.05047, 1321.187044)"><g/></g></g><g fill="#333333" fill-opacity="1"><g transform="translate(2013.191852, 1270.32206)"><g><path d="M 2.0625 -10.296875 L -85.9375 -27.890625 L -79.875 -58.25 L -70.609375 -56.40625 L -70.53125 -56.75 C -76.851562 -66.21875 -79.117188 -75.410156 -77.328125 -84.328125 C -76.046875 -90.734375 -73.53125 -96.472656 -69.78125 -101.546875 C -66.03125 -106.628906 -61.128906 -110.050781 -55.078125 -111.8125 C -64.035156 -122.882812 -67.460938 -133.679688 -65.359375 -144.203125 C -63.484375 -153.578125 -59.238281 -161.113281 -52.625 -166.8125 C -46.019531 -172.507812 -37.113281 -174.238281 -25.90625 -172 L 32.078125 -160.40625 L 26 -130.03125 L -23.75 -139.984375 C -28.4375 -140.921875 -32.609375 -140.414062 -36.265625 -138.46875 C -39.921875 -136.53125 -42.265625 -132.992188 -43.296875 -127.859375 C -44.191406 -123.390625 -43.53125 -119.710938 -41.3125 -116.828125 C -39.09375 -113.941406 -36.113281 -112.007812 -32.375 -111.03125 L 20.109375 -100.53125 L 14.03125 -70.171875 L -35.71875 -80.125 C -40.40625 -81.0625 -44.578125 -80.554688 -48.234375 -78.609375 C -51.898438 -76.671875 -54.25 -73.128906 -55.28125 -67.984375 C -56.21875 -63.296875 -55.460938 -59.484375 -53.015625 -56.546875 C -50.566406 -53.617188 -47.34375 -51.753906 -43.34375 -50.953125 L 8.125 -40.65625 Z M 2.0625 -10.296875 "/></g></g></g><g fill="#333333" fill-opacity="1"><g transform="translate(2043.117283, 1093.231772)"><g><path d="M 0.34375 -8.046875 L -89.3125 -11.953125 L -87.953125 -42.890625 L 1.703125 -38.984375 Z M 0.34375 -8.046875 "/></g></g></g></svg>